# xmcd CD database file
#
# Track frame offsets:
#	150
#	10134
#	23714
#	36199
#	47638
#	58233
#	67816
#	78051
#	93737
#	106312
#	117019
#	128293
#	141567
#	154517
#	167980
#	182684
#	193438
#	205494
#	215616
#	227685
#
# Disc length: 3142 seconds
#
# Revision: 1
# Processed by: cddbd v1.5.2PL0 Copyright (c) Steve Scherf et al.
# Submitted via: jetAudio 7
#
DISCID=140c4414
DTITLE=The Statler Brothers - The Legendary Statler Brothers - Disc 2
DYEAR=1900
DGENRE=Country
TTITLE0=Do You Know You Are My Sunshine
TTITLE1=The Movies
TTITLE2=I Was There
TTITLE3=Silver Medals And Sweet Memories
TTITLE4=Some I Wrote
TTITLE5=Who Am I To Say
TTITLE6=The Official Historian On Shirley Jean Berrell
TTITLE7=How To Be A Country Star
TTITLE8=Here We Are Again
TTITLE9=Nothing As Original As You
TTITLE10=(I'll Even Love You) Better Than I Did Then
TTITLE11=Charlotte's Web
TTITLE12=Don't Forget Yourself
TTITLE13=In The Garden
TTITLE14=Don't Wait On Me
TTITLE15=Years Ago
TTITLE16=You'll Be Back (Every Night In My Dreams)
TTITLE17=Whatever
TTITLE18=A Child Of The Fifties
TTITLE19=The Star-Spangled Banner
EXTD=
EXTT0=
EXTT1=
EXTT2=
EXTT3=
EXTT4=
EXTT5=
EXTT6=
EXTT7=
EXTT8=
EXTT9=
EXTT10=
EXTT11=
EXTT12=
EXTT13=
EXTT14=
EXTT15=
EXTT16=
EXTT17=
EXTT18=
EXTT19=
PLAYORDER=
